<svg aria-roledescription="er" role="graphics-document document" viewBox="0 0 608.2999877929688 342" style="max-width: 100%;" xmlns="http://www.w3.org/2000/svg" width="100%" id="graph-div" height="100%" xmlns:xlink="http://www.w3.org/1999/xlink"><style>@import url("https://cdnjs.cloudflare.com/ajax/libs/font-awesome/6.5.1/css/all.min.css");'</style><style>#graph-div{font-family:"trebuchet ms",verdana,arial,sans-serif;font-size:16px;fill:#ccc;}#graph-div .error-icon{fill:#a44141;}#graph-div .error-text{fill:#ddd;stroke:#ddd;}#graph-div .edge-thickness-normal{stroke-width:2px;}#graph-div .edge-thickness-thick{stroke-width:3.5px;}#graph-div .edge-pattern-solid{stroke-dasharray:0;}#graph-div .edge-pattern-dashed{stroke-dasharray:3;}#graph-div .edge-pattern-dotted{stroke-dasharray:2;}#graph-div .marker{fill:lightgrey;stroke:lightgrey;}#graph-div .marker.cross{stroke:lightgrey;}#graph-div svg{font-family:"trebuchet ms",verdana,arial,sans-serif;font-size:16px;}#graph-div .entityBox{fill:#1f2020;stroke:#81B1DB;}#graph-div .attributeBoxOdd{fill:hsl(0, 0%, 32%);stroke:#81B1DB;}#graph-div .attributeBoxEven{fill:hsl(0, 0%, 22%);stroke:#81B1DB;}#graph-div .relationshipLabelBox{fill:hsl(20, 1.5873015873%, 12.3529411765%);opacity:0.7;background-color:hsl(20, 1.5873015873%, 12.3529411765%);}#graph-div .relationshipLabelBox rect{opacity:0.5;}#graph-div .relationshipLine{stroke:lightgrey;}#graph-div .entityTitleText{text-anchor:middle;font-size:18px;fill:#ccc;}#graph-div #MD_PARENT_START{fill:#f5f5f5!important;stroke:lightgrey!important;stroke-width:1;}#graph-div #MD_PARENT_END{fill:#f5f5f5!important;stroke:lightgrey!important;stroke-width:1;}#graph-div :root{--mermaid-font-family:"trebuchet ms",verdana,arial,sans-serif;}</style><g></g><defs><marker orient="auto" markerHeight="240" markerWidth="190" refY="7" refX="0" id="MD_PARENT_START"><path d="M 18,7 L9,13 L1,7 L9,1 Z"></path></marker></defs><defs><marker orient="auto" markerHeight="28" markerWidth="20" refY="7" refX="19" id="MD_PARENT_END"><path d="M 18,7 L9,13 L1,7 L9,1 Z"></path></marker></defs><defs><marker orient="auto" markerHeight="18" markerWidth="18" refY="9" refX="0" id="ONLY_ONE_START"><path d="M9,0 L9,18 M15,0 L15,18" fill="none" stroke="gray"></path></marker></defs><defs><marker orient="auto" markerHeight="18" markerWidth="18" refY="9" refX="18" id="ONLY_ONE_END"><path d="M3,0 L3,18 M9,0 L9,18" fill="none" stroke="gray"></path></marker></defs><defs><marker orient="auto" markerHeight="18" markerWidth="30" refY="9" refX="0" id="ZERO_OR_ONE_START"><circle r="6" cy="9" cx="21" fill="white" stroke="gray"></circle><path d="M9,0 L9,18" fill="none" stroke="gray"></path></marker></defs><defs><marker orient="auto" markerHeight="18" markerWidth="30" refY="9" refX="30" id="ZERO_OR_ONE_END"><circle r="6" cy="9" cx="9" fill="white" stroke="gray"></circle><path d="M21,0 L21,18" fill="none" stroke="gray"></path></marker></defs><defs><marker orient="auto" markerHeight="36" markerWidth="45" refY="18" refX="18" id="ONE_OR_MORE_START"><path d="M0,18 Q 18,0 36,18 Q 18,36 0,18 M42,9 L42,27" fill="none" stroke="gray"></path></marker></defs><defs><marker orient="auto" markerHeight="36" markerWidth="45" refY="18" refX="27" id="ONE_OR_MORE_END"><path d="M3,9 L3,27 M9,18 Q27,0 45,18 Q27,36 9,18" fill="none" stroke="gray"></path></marker></defs><defs><marker orient="auto" markerHeight="36" markerWidth="57" refY="18" refX="18" id="ZERO_OR_MORE_START"><circle r="6" cy="18" cx="48" fill="white" stroke="gray"></circle><path d="M0,18 Q18,0 36,18 Q18,36 0,18" fill="none" stroke="gray"></path></marker></defs><defs><marker orient="auto" markerHeight="36" markerWidth="57" refY="18" refX="39" id="ZERO_OR_MORE_END"><circle r="6" cy="18" cx="9" fill="white" stroke="gray"></circle><path d="M21,18 Q39,0 57,18 Q39,36 21,18" fill="none" stroke="gray"></path></marker></defs><path marker-start="url(#ONLY_ONE_START)" marker-end="url(#ONE_OR_MORE_END)" style="stroke: gray; fill: none;" d="M246.783,86.188L217.753,98.49C188.722,110.792,130.661,135.396,101.631,157.865C72.6,180.333,72.6,200.667,72.6,210.833L72.6,221" class="er relationshipLine"></path><path marker-start="url(#ONLY_ONE_START)" marker-end="url(#ONLY_ONE_END)" style="stroke: gray; fill: none;" d="M296.783,110L296.783,118.333C296.783,126.667,296.783,143.333,296.783,163.667C296.783,184,296.783,208,296.783,220L296.783,232" class="er relationshipLine"></path><path marker-start="url(#ONLY_ONE_START)" marker-end="url(#ZERO_OR_MORE_END)" style="stroke: gray; fill: none;" d="M346.783,85.514L377.042,97.928C407.3,110.343,467.817,135.171,498.075,155.919C528.333,176.667,528.333,193.333,528.333,201.667L528.333,210" class="er relationshipLine"></path><g transform="translate(246.78333282470703,20 )" id="entity-alumno-a545119d-00ed-5528-8483-22fb06bd8bc5"><rect height="90" width="100" y="0" x="0" class="er entityBox"></rect><text transform="translate(50,12)" style="dominant-baseline: middle; text-anchor: middle; font-size: 12px;" y="0" x="0" id="text-entity-alumno-a545119d-00ed-5528-8483-22fb06bd8bc5" class="er entityLabel">alumno</text><rect height="22" width="38.94999980926514" y="24" x="0" class="er attributeBoxOdd"></rect><text transform="translate(5,35)" style="dominant-baseline: middle; font-size: 10.2px;" y="0" x="0" id="text-entity-alumno-a545119d-00ed-5528-8483-22fb06bd8bc5-attr-1-type" class="er entityLabel">int</text><rect height="22" width="61.05000019073486" y="24" x="38.94999980926514" class="er attributeBoxOdd"></rect><text transform="translate(43.94999980926514,35)" style="dominant-baseline: middle; font-size: 10.2px;" y="0" x="0" id="text-entity-alumno-a545119d-00ed-5528-8483-22fb06bd8bc5-attr-1-name" class="er entityLabel">usuario_id</text><rect height="22" width="38.94999980926514" y="46" x="0" class="er attributeBoxEven"></rect><text transform="translate(5,57)" style="dominant-baseline: middle; font-size: 10.2px;" y="0" x="0" id="text-entity-alumno-a545119d-00ed-5528-8483-22fb06bd8bc5-attr-2-type" class="er entityLabel">string</text><rect height="22" width="61.05000019073486" y="46" x="38.94999980926514" class="er attributeBoxEven"></rect><text transform="translate(43.94999980926514,57)" style="dominant-baseline: middle; font-size: 10.2px;" y="0" x="0" id="text-entity-alumno-a545119d-00ed-5528-8483-22fb06bd8bc5-attr-2-name" class="er entityLabel">nombre</text><rect height="22" width="38.94999980926514" y="68" x="0" class="er attributeBoxOdd"></rect><text transform="translate(5,79)" style="dominant-baseline: middle; font-size: 10.2px;" y="0" x="0" id="text-entity-alumno-a545119d-00ed-5528-8483-22fb06bd8bc5-attr-3-type" class="er entityLabel">string</text><rect height="22" width="61.05000019073486" y="68" x="38.94999980926514" class="er attributeBoxOdd"></rect><text transform="translate(43.94999980926514,79)" style="dominant-baseline: middle; font-size: 10.2px;" y="0" x="0" id="text-entity-alumno-a545119d-00ed-5528-8483-22fb06bd8bc5-attr-3-name" class="er entityLabel">password</text></g><g transform="translate(20,221 )" id="entity-curso-7295bdf6-8d1f-51db-9a50-555d73954f4f"><rect height="90" width="105.1999979019165" y="0" x="0" class="er entityBox"></rect><text transform="translate(52.59999895095825,12)" style="dominant-baseline: middle; text-anchor: middle; font-size: 12px;" y="0" x="0" id="text-entity-curso-7295bdf6-8d1f-51db-9a50-555d73954f4f" class="er entityLabel">curso</text><rect height="22" width="34.933332443237305" y="24" x="0" class="er attributeBoxOdd"></rect><text transform="translate(5,35)" style="dominant-baseline: middle; font-size: 10.2px;" y="0" x="0" id="text-entity-curso-7295bdf6-8d1f-51db-9a50-555d73954f4f-attr-1-type" class="er entityLabel">int</text><rect height="22" width="49.099998474121094" y="24" x="34.933332443237305" class="er attributeBoxOdd"></rect><text transform="translate(39.933332443237305,35)" style="dominant-baseline: middle; font-size: 10.2px;" y="0" x="0" id="text-entity-curso-7295bdf6-8d1f-51db-9a50-555d73954f4f-attr-1-name" class="er entityLabel">curso_id</text><rect height="22" width="21.166666984558105" y="24" x="84.0333309173584" class="er attributeBoxOdd"></rect><text transform="translate(89.0333309173584,35)" style="dominant-baseline: middle; font-size: 10.2px;" y="0" x="0" id="text-entity-curso-7295bdf6-8d1f-51db-9a50-555d73954f4f-attr-1-key" class="er entityLabel">pk</text><rect height="22" width="34.933332443237305" y="46" x="0" class="er attributeBoxEven"></rect><text transform="translate(5,57)" style="dominant-baseline: middle; font-size: 10.2px;" y="0" x="0" id="text-entity-curso-7295bdf6-8d1f-51db-9a50-555d73954f4f-attr-2-type" class="er entityLabel">int</text><rect height="22" width="49.099998474121094" y="46" x="34.933332443237305" class="er attributeBoxEven"></rect><text transform="translate(39.933332443237305,57)" style="dominant-baseline: middle; font-size: 10.2px;" y="0" x="0" id="text-entity-curso-7295bdf6-8d1f-51db-9a50-555d73954f4f-attr-2-name" class="er entityLabel">duracion</text><rect height="22" width="21.166666984558105" y="46" x="84.0333309173584" class="er attributeBoxEven"></rect><text transform="translate(89.0333309173584,57)" style="dominant-baseline: middle; font-size: 10.2px;" y="0" x="0" id="text-entity-curso-7295bdf6-8d1f-51db-9a50-555d73954f4f-attr-2-key" class="er entityLabel"></text><rect height="22" width="34.933332443237305" y="68" x="0" class="er attributeBoxOdd"></rect><text transform="translate(5,79)" style="dominant-baseline: middle; font-size: 10.2px;" y="0" x="0" id="text-entity-curso-7295bdf6-8d1f-51db-9a50-555d73954f4f-attr-3-type" class="er entityLabel">string</text><rect height="22" width="49.099998474121094" y="68" x="34.933332443237305" class="er attributeBoxOdd"></rect><text transform="translate(39.933332443237305,79)" style="dominant-baseline: middle; font-size: 10.2px;" y="0" x="0" id="text-entity-curso-7295bdf6-8d1f-51db-9a50-555d73954f4f-attr-3-name" class="er entityLabel">nombre</text><rect height="22" width="21.166666984558105" y="68" x="84.0333309173584" class="er attributeBoxOdd"></rect><text transform="translate(89.0333309173584,79)" style="dominant-baseline: middle; font-size: 10.2px;" y="0" x="0" id="text-entity-curso-7295bdf6-8d1f-51db-9a50-555d73954f4f-attr-3-key" class="er entityLabel"></text></g><g transform="translate(225.1999969482422,232 )" id="entity-carnetestudiante-05fa9824-7397-50e9-ab78-485c985865a8"><rect height="68" width="143.16666507720947" y="0" x="0" class="er entityBox"></rect><text transform="translate(71.58333253860474,12)" style="dominant-baseline: middle; text-anchor: middle; font-size: 12px;" y="0" x="0" id="text-entity-carnetestudiante-05fa9824-7397-50e9-ab78-485c985865a8" class="er entityLabel">carnet estudiante</text><rect height="22" width="34.933332443237305" y="24" x="0" class="er attributeBoxOdd"></rect><text transform="translate(5,35)" style="dominant-baseline: middle; font-size: 10.2px;" y="0" x="0" id="text-entity-carnetestudiante-05fa9824-7397-50e9-ab78-485c985865a8-attr-1-type" class="er entityLabel">int</text><rect height="22" width="87.06666564941406" y="24" x="34.933332443237305" class="er attributeBoxOdd"></rect><text transform="translate(39.933332443237305,35)" style="dominant-baseline: middle; font-size: 10.2px;" y="0" x="0" id="text-entity-carnetestudiante-05fa9824-7397-50e9-ab78-485c985865a8-attr-1-name" class="er entityLabel">carnet_id</text><rect height="22" width="21.166666984558105" y="24" x="121.99999809265137" class="er attributeBoxOdd"></rect><text transform="translate(126.99999809265137,35)" style="dominant-baseline: middle; font-size: 10.2px;" y="0" x="0" id="text-entity-carnetestudiante-05fa9824-7397-50e9-ab78-485c985865a8-attr-1-key" class="er entityLabel">pk</text><rect height="22" width="34.933332443237305" y="46" x="0" class="er attributeBoxEven"></rect><text transform="translate(5,57)" style="dominant-baseline: middle; font-size: 10.2px;" y="0" x="0" id="text-entity-carnetestudiante-05fa9824-7397-50e9-ab78-485c985865a8-attr-2-type" class="er entityLabel">string</text><rect height="22" width="87.06666564941406" y="46" x="34.933332443237305" class="er attributeBoxEven"></rect><text transform="translate(39.933332443237305,57)" style="dominant-baseline: middle; font-size: 10.2px;" y="0" x="0" id="text-entity-carnetestudiante-05fa9824-7397-50e9-ab78-485c985865a8-attr-2-name" class="er entityLabel">fecha_caducidad</text><rect height="22" width="21.166666984558105" y="46" x="121.99999809265137" class="er attributeBoxEven"></rect><text transform="translate(126.99999809265137,57)" style="dominant-baseline: middle; font-size: 10.2px;" y="0" x="0" id="text-entity-carnetestudiante-05fa9824-7397-50e9-ab78-485c985865a8-attr-2-key" class="er entityLabel"></text></g><g transform="translate(468.3666687011719,210 )" id="entity-opt-f4582447-4b3d-52b1-a012-9d2cde580cea"><rect height="112" width="119.93333148956299" y="0" x="0" class="er entityBox"></rect><text transform="translate(59.966665744781494,12)" style="dominant-baseline: middle; text-anchor: middle; font-size: 12px;" y="0" x="0" id="text-entity-opt-f4582447-4b3d-52b1-a012-9d2cde580cea" class="er entityLabel">opt</text><rect height="22" width="34.933332443237305" y="24" x="0" class="er attributeBoxOdd"></rect><text transform="translate(5,35)" style="dominant-baseline: middle; font-size: 10.2px;" y="0" x="0" id="text-entity-opt-f4582447-4b3d-52b1-a012-9d2cde580cea-attr-1-type" class="er entityLabel">int</text><rect height="22" width="63.83333206176758" y="24" x="34.933332443237305" class="er attributeBoxOdd"></rect><text transform="translate(39.933332443237305,35)" style="dominant-baseline: middle; font-size: 10.2px;" y="0" x="0" id="text-entity-opt-f4582447-4b3d-52b1-a012-9d2cde580cea-attr-1-name" class="er entityLabel">optativa_id</text><rect height="22" width="21.166666984558105" y="24" x="98.76666450500488" class="er attributeBoxOdd"></rect><text transform="translate(103.76666450500488,35)" style="dominant-baseline: middle; font-size: 10.2px;" y="0" x="0" id="text-entity-opt-f4582447-4b3d-52b1-a012-9d2cde580cea-attr-1-key" class="er entityLabel">pk</text><rect height="22" width="34.933332443237305" y="46" x="0" class="er attributeBoxEven"></rect><text transform="translate(5,57)" style="dominant-baseline: middle; font-size: 10.2px;" y="0" x="0" id="text-entity-opt-f4582447-4b3d-52b1-a012-9d2cde580cea-attr-2-type" class="er entityLabel">string</text><rect height="22" width="63.83333206176758" y="46" x="34.933332443237305" class="er attributeBoxEven"></rect><text transform="translate(39.933332443237305,57)" style="dominant-baseline: middle; font-size: 10.2px;" y="0" x="0" id="text-entity-opt-f4582447-4b3d-52b1-a012-9d2cde580cea-attr-2-name" class="er entityLabel">nombre</text><rect height="22" width="21.166666984558105" y="46" x="98.76666450500488" class="er attributeBoxEven"></rect><text transform="translate(103.76666450500488,57)" style="dominant-baseline: middle; font-size: 10.2px;" y="0" x="0" id="text-entity-opt-f4582447-4b3d-52b1-a012-9d2cde580cea-attr-2-key" class="er entityLabel"></text><rect height="22" width="34.933332443237305" y="68" x="0" class="er attributeBoxOdd"></rect><text transform="translate(5,79)" style="dominant-baseline: middle; font-size: 10.2px;" y="0" x="0" id="text-entity-opt-f4582447-4b3d-52b1-a012-9d2cde580cea-attr-3-type" class="er entityLabel">string</text><rect height="22" width="63.83333206176758" y="68" x="34.933332443237305" class="er attributeBoxOdd"></rect><text transform="translate(39.933332443237305,79)" style="dominant-baseline: middle; font-size: 10.2px;" y="0" x="0" id="text-entity-opt-f4582447-4b3d-52b1-a012-9d2cde580cea-attr-3-name" class="er entityLabel">fecha_inicio</text><rect height="22" width="21.166666984558105" y="68" x="98.76666450500488" class="er attributeBoxOdd"></rect><text transform="translate(103.76666450500488,79)" style="dominant-baseline: middle; font-size: 10.2px;" y="0" x="0" id="text-entity-opt-f4582447-4b3d-52b1-a012-9d2cde580cea-attr-3-key" class="er entityLabel"></text><rect height="22" width="34.933332443237305" y="90" x="0" class="er attributeBoxEven"></rect><text transform="translate(5,101)" style="dominant-baseline: middle; font-size: 10.2px;" y="0" x="0" id="text-entity-opt-f4582447-4b3d-52b1-a012-9d2cde580cea-attr-4-type" class="er entityLabel">string</text><rect height="22" width="63.83333206176758" y="90" x="34.933332443237305" class="er attributeBoxEven"></rect><text transform="translate(39.933332443237305,101)" style="dominant-baseline: middle; font-size: 10.2px;" y="0" x="0" id="text-entity-opt-f4582447-4b3d-52b1-a012-9d2cde580cea-attr-4-name" class="er entityLabel">fecha_fin</text><rect height="22" width="21.166666984558105" y="90" x="98.76666450500488" class="er attributeBoxEven"></rect><text transform="translate(103.76666450500488,101)" style="dominant-baseline: middle; font-size: 10.2px;" y="0" x="0" id="text-entity-opt-f4582447-4b3d-52b1-a012-9d2cde580cea-attr-4-key" class="er entityLabel"></text></g><rect height="14" width="63" y="127.51669311523438" x="108.01400756835938" class="er relationshipLabelBox"></rect><text style="text-anchor: middle; dominant-baseline: middle; font-size: 12px;" y="134.51669311523438" x="139.51400756835938" id="rel577" class="er relationshipLabel">se apunta a</text><rect height="14" width="32.66666793823242" y="164" x="280.4496555328369" class="er relationshipLabelBox"></rect><text style="text-anchor: middle; dominant-baseline: middle; font-size: 12px;" y="171" x="296.7829895019531" id="rel578" class="er relationshipLabel">posee</text><rect height="14" width="63" y="124.39114379882812" x="422.2669372558594" class="er relationshipLabelBox"></rect><text style="text-anchor: middle; dominant-baseline: middle; font-size: 12px;" y="131.39114379882812" x="453.7669372558594" id="rel579" class="er relationshipLabel">se apunta a</text></svg>